<svg xmlns="http://www.w3.org/2000/svg" xmlns:xlink="http://www.w3.org/1999/xlink" width="41" height="40" viewBox="0 0 41 40">
  <defs>
    <clipPath id="clip-ic_battle_active">
      <rect width="41" height="40"/>
    </clipPath>
  </defs>
  <g id="ic_battle_active" clip-path="url(#clip-ic_battle_active)">
    <g id="Group_125" data-name="Group 125" transform="translate(-3645.052 -890.013)">
      <g id="Group_121" data-name="Group 121" transform="translate(3647.75 892.469)">
        <g id="Path_470" data-name="Path 470" transform="translate(1.094 30.068) rotate(45)" fill="#ff2667" stroke-linecap="round">
          <path d="M 6.288827419281006 2.421689987182617 L 5.514657497406006 2.409359931945801 L 0.0130875576287508 2.32177996635437 L -0.7133124470710754 2.310220003128052 L -0.7248724699020386 1.583819985389709 L -0.7499024271965027 0.01193997450172901 L -0.7622324228286743 -0.7622300386428833 L 0.01193755771964788 -0.7499000430107117 L 5.51350736618042 -0.6623200178146362 L 6.239907741546631 -0.6507600545883179 L 6.251467704772949 0.07563997060060501 L 6.276497364044189 1.647519946098328 L 6.288827419281006 2.421689987182617 Z" stroke="none"/>
          <path d="M -2.384185791015625e-06 0 L 0.02502775192260742 1.571879982948303 L 5.526597499847412 1.659459948539734 L 5.501567363739014 0.08757996559143066 L -2.384185791015625e-06 0 M -1.524472236633301 -1.524459958076477 L 0.02387762069702148 -1.499810099601746 L 5.525447368621826 -1.412230134010315 L 6.97824764251709 -1.389099955558777 L 7.001377582550049 0.06369996070861816 L 7.026407718658447 1.635579943656921 L 7.051067352294922 3.183919906616211 L 5.5027174949646 3.1592698097229 L 0.001147747039794922 3.071690082550049 L -1.451652526855469 3.04856014251709 L -1.474782466888428 1.595759987831116 L -1.499812602996826 0.0238800048828125 L -1.524472236633301 -1.524459958076477 Z" stroke="none" fill="#261652"/>
        </g>
        <g id="Path_471" data-name="Path 471" transform="translate(6.563 22.164) rotate(45)" fill="#ff2667" stroke-linecap="round">
          <path d="M 9.445091247558594 3.257672786712646 L 8.670921325683594 3.245342969894409 L 0.02559114061295986 3.107712745666504 L -0.7008088827133179 3.096152782440186 L -0.7123788595199585 2.369752883911133 L -0.7499088644981384 0.01194286439567804 L -0.7622288465499878 -0.7622271180152893 L 0.01194114051759243 -0.7498971223831177 L 8.657271385192871 -0.6122671365737915 L 9.383670806884766 -0.6007071137428284 L 9.395240783691406 0.1256928592920303 L 9.432770729064941 2.483502864837646 L 9.445091247558594 3.257672786712646 Z" stroke="none"/>
          <path d="M 9.5367431640625e-07 2.86102294921875e-06 L 0.03753089904785156 2.357812881469727 L 8.682861328125 2.495442867279053 L 8.645331382751465 0.1376328468322754 L 9.5367431640625e-07 2.86102294921875e-06 M -1.524458885192871 -1.524456977844238 L 0.02388095855712891 -1.499807119369507 L 8.669211387634277 -1.362177133560181 L 10.12202072143555 -1.339047193527222 L 10.1451416015625 0.1137628555297852 L 10.18267154693604 2.471572875976563 L 10.20732116699219 4.01990270614624 L 8.658981323242188 3.995252847671509 L 0.01365089416503906 3.857622861862183 L -1.43915843963623 3.834492921829224 L -1.462279319763184 2.381682872772217 L -1.499809265136719 0.02387285232543945 L -1.524458885192871 -1.524456977844238 Z" stroke="none" fill="#261652"/>
        </g>
        <path id="Path_458" data-name="Path 458" d="M.091,5.741,3.9,5.8,3.807.061,0,0Z" transform="translate(6.228 26.091) rotate(45)" fill="#fff" stroke="#261652" stroke-width="1.5"/>
        <path id="Path_459" data-name="Path 459" d="M0,0,3.881.062" transform="translate(4.933 27.428) rotate(45)" fill="#fff" stroke="#261652" stroke-width="1.5"/>
        <path id="Path_460" data-name="Path 460" d="M0,0,3.881.062" transform="translate(3.583 28.822) rotate(45)" fill="#fff" stroke="#261652" stroke-width="1.5"/>
        <path id="Path_461" data-name="Path 461" d="M.639,31.341l6.138.1L6.428,9.52l-.1-6.281L3.139.05.05,3.139Z" transform="translate(31.151 0) rotate(45)" fill="#fff" stroke="#261652" stroke-width="1.5"/>
      </g>
      <g id="Group_122" data-name="Group 122" transform="translate(3647.75 892.469)">
        <g id="Path_472" data-name="Path 472" transform="translate(35.52 31.198) rotate(135)" fill="#ff2667" stroke-linecap="round">
          <path d="M -0.7872558832168579 2.334107637405396 L -0.7749258875846863 1.559937596321106 L -0.7498959302902222 -0.01194237545132637 L -0.738335907459259 -0.7383424043655396 L -0.01193590275943279 -0.7499023675918579 L 5.489634037017822 -0.8374823927879333 L 6.263803958892822 -0.849812388420105 L 6.251473903656006 -0.07564237713813782 L 6.226444244384766 1.496237635612488 L 6.214884281158447 2.22263765335083 L 5.488483905792236 2.234197616577148 L -0.01308590266853571 2.321777582168579 L -0.7872558832168579 2.334107637405396 Z" stroke="none"/>
          <path d="M 5.501574039459229 -0.08758234977722168 L 4.291534423828125e-06 -2.384185791015625e-06 L -0.02502584457397461 1.571877598762512 L 5.47654390335083 1.484297633171082 L 5.501574039459229 -0.08758234977722168 M 7.026043891906738 -1.612042307853699 L 7.001384258270264 -0.06370234489440918 L 6.976354122161865 1.508177638053894 L 6.953224182128906 2.960977554321289 L 5.500423908233643 2.984107494354248 L -0.001145839691162109 3.071687698364258 L -1.549495697021484 3.096337795257568 L -1.52483606338501 1.5479975938797 L -1.499805927276611 -0.02388238906860352 L -1.476675987243652 -1.476682305335999 L -0.02387571334838867 -1.499812483787537 L 5.477694034576416 -1.587392449378967 L 7.026043891906738 -1.612042307853699 Z" stroke="none" fill="#261652"/>
        </g>
        <g id="Path_473" data-name="Path 473" transform="translate(30.598 23.858) rotate(135)" fill="#ff2667" stroke-linecap="round">
          <path d="M -0.7997645139694214 3.120043277740479 L -0.787444531917572 2.345873355865479 L -0.7499145269393921 -0.01193664502352476 L -0.7383445501327515 -0.7383366227149963 L -0.01194452680647373 -0.7498966455459595 L 8.63338565826416 -0.8875266313552856 L 9.40755558013916 -0.8998566269874573 L 9.395235061645508 -0.1256866455078125 L 9.357705116271973 2.232123374938965 L 9.346135139465332 2.958523273468018 L 8.619735717773438 2.970083236694336 L -0.02559452690184116 3.107713460922241 L -0.7997645139694214 3.120043277740479 Z" stroke="none"/>
          <path d="M 8.645325660705566 -0.1376264095306396 L -4.76837158203125e-06 3.576278686523438e-06 L -0.03753471374511719 2.357813358306885 L 8.607795715332031 2.220183372497559 L 8.645325660705566 -0.1376264095306396 M 10.16978549957275 -1.662086486816406 L 10.1451358795166 -0.1137564182281494 L 10.10760498046875 2.244053363800049 L 10.08448600769043 3.696863651275635 L 8.631675720214844 3.719993591308594 L -0.01365470886230469 3.85762357711792 L -1.561994552612305 3.882273435592651 L -1.537344932556152 2.333943367004395 L -1.499814987182617 -0.02386641502380371 L -1.476694107055664 -1.476676464080811 L -0.02388477325439453 -1.499806642532349 L 8.621445655822754 -1.637436628341675 L 10.16978549957275 -1.662086486816406 Z" stroke="none" fill="#261652"/>
        </g>
        <path id="Path_458-2" data-name="Path 458" d="M0,0,3.807-.061,3.715,5.68l-3.807.061Z" transform="translate(33.287 30.215) rotate(135)" fill="#fff" stroke="#261652" stroke-width="1.5"/>
        <path id="Path_459-2" data-name="Path 459" d="M0,.062,3.881,0" transform="translate(30.631 27.472) rotate(135)" fill="#fff" stroke="#261652" stroke-width="1.5"/>
        <path id="Path_460-2" data-name="Path 460" d="M0,.062,3.881,0" transform="translate(31.981 28.866) rotate(135)" fill="#fff" stroke="#261652" stroke-width="1.5"/>
        <path id="Path_461-2" data-name="Path 461" d="M.14,0,6.278-.1,5.929,21.818l-.1,6.281L2.64,31.289-.449,28.2Z" transform="translate(26.176 22.512) rotate(135)" fill="#fff" stroke="#261652" stroke-width="1.5"/>
      </g>
    </g>
  </g>
</svg>
