<svg xmlns="http://www.w3.org/2000/svg" xmlns:xlink="http://www.w3.org/1999/xlink" width="40" height="40" viewBox="0 0 40 40">
  <defs>
    <clipPath id="clip-ic_battle">
      <rect width="40" height="40"/>
    </clipPath>
  </defs>
  <g id="ic_battle" clip-path="url(#clip-ic_battle)">
    <g id="Group_130" data-name="Group 130" transform="translate(-2793 -138)">
      <g id="Group_124" data-name="Group 124" transform="translate(2794.75 139.469)">
        <g id="Rectangle_199" data-name="Rectangle 199" transform="translate(1.15 30.623) rotate(45)" fill="#bdc8d2" stroke="#261652" stroke-linecap="round" stroke-linejoin="round" stroke-width="1.5">
          <rect width="5.692" height="1.626" stroke="none"/>
          <rect x="-0.75" y="-0.75" width="7.192" height="3.126" fill="none"/>
        </g>
        <g id="Rectangle_200" data-name="Rectangle 200" transform="translate(6.9 22.573) rotate(45)" fill="#bdc8d2" stroke="#261652" stroke-linecap="round" stroke-linejoin="round" stroke-width="1.5">
          <rect width="8.945" height="2.44" stroke="none"/>
          <rect x="-0.75" y="-0.75" width="10.445" height="3.94" fill="none"/>
        </g>
        <path id="Path_458" data-name="Path 458" d="M0,5.94H3.939V0H0Z" transform="translate(6.548 26.573) rotate(45)" fill="#fff" stroke="#261652" stroke-width="1.5"/>
        <path id="Path_459" data-name="Path 459" d="M0,0H4.015" transform="translate(5.186 27.935) rotate(45)" fill="#fff" stroke="#261652" stroke-width="1.5"/>
        <path id="Path_460" data-name="Path 460" d="M0,0H4.015" transform="translate(3.767 29.354) rotate(45)" fill="#fff" stroke="#261652" stroke-width="1.5"/>
        <path id="Path_461" data-name="Path 461" d="M.145,32.425H6.5V3.248L3.248,0,0,3.248Z" transform="translate(30.924 0) rotate(45)" fill="#fff" stroke="#261652" stroke-width="1.5"/>
      </g>
      <g id="Group_123" data-name="Group 123" transform="translate(2794.75 139.469)">
        <g id="Rectangle_199-2" data-name="Rectangle 199" transform="translate(35.517 31.774) rotate(135)" fill="#bdc8d2" stroke="#261652" stroke-linecap="round" stroke-linejoin="round" stroke-width="1.5">
          <rect width="5.692" height="1.626" stroke="none"/>
          <rect x="-0.75" y="-0.75" width="7.192" height="3.126" fill="none"/>
        </g>
        <g id="Rectangle_200-2" data-name="Rectangle 200" transform="translate(30.342 24.298) rotate(135)" fill="#bdc8d2" stroke="#261652" stroke-linecap="round" stroke-linejoin="round" stroke-width="1.5">
          <rect width="8.945" height="2.44" stroke="none"/>
          <rect x="-0.75" y="-0.75" width="10.445" height="3.94" fill="none"/>
        </g>
        <path id="Path_458-2" data-name="Path 458" d="M0,0H3.939V5.94H0Z" transform="translate(33.169 30.773) rotate(135)" fill="#fff" stroke="#261652" stroke-width="1.5"/>
        <path id="Path_459-2" data-name="Path 459" d="M0,0H4.015" transform="translate(30.331 27.935) rotate(135)" fill="#fff" stroke="#261652" stroke-width="1.5"/>
        <path id="Path_460-2" data-name="Path 460" d="M0,0H4.015" transform="translate(31.75 29.354) rotate(135)" fill="#fff" stroke="#261652" stroke-width="1.5"/>
        <path id="Path_461-2" data-name="Path 461" d="M.145,0H6.5V29.177L3.248,32.425,0,29.177Z" transform="translate(27.521 22.928) rotate(135)" fill="#fff" stroke="#261652" stroke-width="1.5"/>
      </g>
    </g>
  </g>
</svg>
