<svg xmlns="http://www.w3.org/2000/svg" xmlns:xlink="http://www.w3.org/1999/xlink" width="40" height="40" viewBox="0 0 40 40">
  <defs>
    <clipPath id="clip-ic_history_active">
      <rect width="40" height="40"/>
    </clipPath>
  </defs>
  <g id="ic_history_active" clip-path="url(#clip-ic_history_active)">
    <g id="Group_129" data-name="Group 129" transform="translate(-2846 -70)">
      <g id="Group_111" data-name="Group 111" transform="translate(2857.368 76.758)">
        <path id="Path_454" data-name="Path 454" d="M3463.558,819.358h8.5a3.969,3.969,0,0,1,2.539.718,3.915,3.915,0,0,1,.76,2.514v26.524a1.971,1.971,0,0,1-.557,1.489,3.335,3.335,0,0,1-1.865.342h-17.916s-1.562.186-2.234-.484-.452-2.195-.452-2.195V831.473" transform="translate(-3452.297 -819.355)" fill="#fff" stroke="#261652" stroke-linecap="round" stroke-linejoin="round" stroke-width="3"/>
        <path id="Path_455" data-name="Path 455" d="M3461.993,837.052h12.435" transform="translate(-3456.367 -825.603)" fill="#fff" stroke="#261652" stroke-linecap="round" stroke-width="2"/>
        <path id="Path_456" data-name="Path 456" d="M3461.993,837.052h12.435" transform="translate(-3456.367 -819.781)" fill="#fff" stroke="#261652" stroke-linecap="round" stroke-width="2"/>
        <path id="Path_457" data-name="Path 457" d="M3461.993,837.052h12.435" transform="translate(-3456.367 -813.311)" fill="#fff" stroke="#261652" stroke-linecap="round" stroke-width="2"/>
      </g>
      <g id="Group_115" data-name="Group 115" transform="translate(2852 72)">
        <g id="Ellipse_34" data-name="Ellipse 34" fill="#ff2667" stroke="#261652" stroke-width="2">
          <circle cx="7.5" cy="7.5" r="7.5" stroke="none"/>
          <circle cx="7.5" cy="7.5" r="6.5" fill="none"/>
        </g>
        <path id="Path_453" data-name="Path 453" d="M3534.514,835.214v5.343h2.667" transform="translate(-3527.065 -831.646)" fill="none" stroke="#261652" stroke-linecap="round" stroke-linejoin="round" stroke-width="1.5"/>
      </g>
    </g>
  </g>
</svg>
