<svg xmlns="http://www.w3.org/2000/svg" xmlns:xlink="http://www.w3.org/1999/xlink" width="40" height="40" viewBox="0 0 40 40">
  <defs>
    <clipPath id="clip-ic_history">
      <rect width="40" height="40"/>
    </clipPath>
  </defs>
  <g id="ic_history" clip-path="url(#clip-ic_history)">
    <g id="Group_114" data-name="Group 114" transform="translate(-3461 -841)">
      <g id="Group_111" data-name="Group 111" transform="translate(3472.387 847.775)">
        <path id="Path_454" data-name="Path 454" d="M3463.6,819.358h8.529a3.985,3.985,0,0,1,2.549.72,3.928,3.928,0,0,1,.763,2.523v26.62a1.98,1.98,0,0,1-.559,1.495,3.348,3.348,0,0,1-1.872.344h-17.981s-1.568.187-2.242-.485-.454-2.2-.454-2.2V831.517" transform="translate(-3452.297 -819.355)" fill="#fff" stroke="#261652" stroke-linecap="round" stroke-linejoin="round" stroke-width="3"/>
        <path id="Path_455" data-name="Path 455" d="M3461.993,837.052h12.479" transform="translate(-3456.346 -825.562)" fill="#fff" stroke="#261652" stroke-linecap="round" stroke-width="2"/>
        <path id="Path_456" data-name="Path 456" d="M3461.993,837.052h12.479" transform="translate(-3456.346 -819.718)" fill="#fff" stroke="#261652" stroke-linecap="round" stroke-width="2"/>
        <path id="Path_457" data-name="Path 457" d="M3461.993,837.052h12.479" transform="translate(-3456.346 -813.225)" fill="#fff" stroke="#261652" stroke-linecap="round" stroke-width="2"/>
      </g>
      <g id="Ellipse_34" data-name="Ellipse 34" transform="translate(3467 843)" fill="#bdc8d2" stroke="#261652" stroke-width="2">
        <circle cx="7.5" cy="7.5" r="7.5" stroke="none"/>
        <circle cx="7.5" cy="7.5" r="6.5" fill="none"/>
      </g>
      <path id="Path_453" data-name="Path 453" d="M3534.514,835.213v5.362h2.677" transform="translate(-60.038 11.367)" fill="none" stroke="#261652" stroke-linecap="round" stroke-linejoin="round" stroke-width="1.5"/>
    </g>
  </g>
</svg>
