<svg xmlns="http://www.w3.org/2000/svg" xmlns:xlink="http://www.w3.org/1999/xlink" width="40" height="40" viewBox="0 0 40 40">
  <defs>
    <clipPath id="clip-ic_save">
      <rect width="40" height="40"/>
    </clipPath>
  </defs>
  <g id="ic_save" clip-path="url(#clip-ic_save)">
    <path id="ic_love_inactive" d="M29.627,3a11.411,11.411,0,0,0-8.574,3.981A11.411,11.411,0,0,0,12.479,3,10.377,10.377,0,0,0,2,13.477c0,7.2,6.478,13.068,16.291,21.983l2.763,2.5,2.763-2.515c9.812-8.9,16.291-14.764,16.291-21.964A10.377,10.377,0,0,0,29.627,3ZM21.244,32.622l-.191.19-.191-.19c-9.069-8.21-15.052-13.64-15.052-19.145A6.511,6.511,0,0,1,12.479,6.81a7.449,7.449,0,0,1,6.8,4.5h3.563a7.4,7.4,0,0,1,6.783-4.5A6.511,6.511,0,0,1,36.3,13.477C36.3,18.983,30.313,24.412,21.244,32.622Z" transform="translate(-0.777 -0.211)"/>
  </g>
</svg>
